<mxfile host="app.diagrams.net" modified="2023-06-26T09:45:34.405Z" agent="Mozilla/5.0 (X11; Linux x86_64) AppleWebKit/537.36 (KHTML, like Gecko) Chrome/113.0.0.0 Safari/537.36" etag="UsK60KyAr34UaEao5URp" version="21.5.0" type="device">
  <diagram name="Page-1" id="c4acf3e9-155e-7222-9cf6-157b1a14988f">
    <mxGraphModel dx="2899" dy="3281" grid="1" gridSize="10" guides="1" tooltips="1" connect="1" arrows="1" fold="1" page="1" pageScale="1" pageWidth="850" pageHeight="1100" background="none" math="0" shadow="0">
      <root>
        <mxCell id="0" />
        <mxCell id="1" parent="0" />
        <mxCell id="E7lHUV5NCX718kUmk5iU-2" value="Record" style="swimlane;fontStyle=0;childLayout=stackLayout;horizontal=1;startSize=57;horizontalStack=0;resizeParent=1;resizeParentMax=0;resizeLast=0;collapsible=1;marginBottom=0;whiteSpace=wrap;html=1;fontSize=16;" vertex="1" parent="1">
          <mxGeometry x="-79" y="-1839" width="202" height="499" as="geometry">
            <mxRectangle x="-295" y="-533" width="87" height="57" as="alternateBounds" />
          </mxGeometry>
        </mxCell>
        <mxCell id="E7lHUV5NCX718kUmk5iU-3" value="Subrecord" style="swimlane;fontStyle=0;childLayout=stackLayout;horizontal=1;startSize=30;horizontalStack=0;resizeParent=1;resizeParentMax=0;resizeLast=0;collapsible=1;marginBottom=0;whiteSpace=wrap;html=1;fontSize=16;" vertex="1" parent="E7lHUV5NCX718kUmk5iU-2">
          <mxGeometry y="57" width="202" height="89" as="geometry" />
        </mxCell>
        <mxCell id="E7lHUV5NCX718kUmk5iU-4" value="&lt;div&gt;&amp;nbsp; &amp;nbsp; &amp;nbsp;+emails: List&lt;/div&gt;" style="text;strokeColor=none;fillColor=none;html=1;whiteSpace=wrap;verticalAlign=middle;overflow=hidden;fontSize=16;" vertex="1" parent="E7lHUV5NCX718kUmk5iU-3">
          <mxGeometry y="30" width="202" height="29" as="geometry" />
        </mxCell>
        <mxCell id="E7lHUV5NCX718kUmk5iU-5" value="&amp;nbsp; &amp;nbsp; +subrecord: Any" style="text;strokeColor=none;fillColor=none;align=left;verticalAlign=middle;spacingLeft=4;spacingRight=4;overflow=hidden;points=[[0,0.5],[1,0.5]];portConstraint=eastwest;rotatable=0;whiteSpace=wrap;html=1;fontSize=16;" vertex="1" parent="E7lHUV5NCX718kUmk5iU-3">
          <mxGeometry y="59" width="202" height="30" as="geometry" />
        </mxCell>
        <mxCell id="E7lHUV5NCX718kUmk5iU-6" value="+user: User" style="text;strokeColor=none;fillColor=none;html=1;whiteSpace=wrap;verticalAlign=middle;overflow=hidden;fontSize=16;" vertex="1" parent="E7lHUV5NCX718kUmk5iU-2">
          <mxGeometry y="146" width="202" height="34" as="geometry" />
        </mxCell>
        <mxCell id="E7lHUV5NCX718kUmk5iU-7" value="&lt;div&gt;+phone_numbers: List&lt;/div&gt;" style="text;strokeColor=none;fillColor=none;html=1;whiteSpace=wrap;verticalAlign=middle;overflow=hidden;fontSize=16;" vertex="1" parent="E7lHUV5NCX718kUmk5iU-2">
          <mxGeometry y="180" width="202" height="31" as="geometry" />
        </mxCell>
        <mxCell id="E7lHUV5NCX718kUmk5iU-8" value="&lt;div&gt;+emails: List&lt;/div&gt;" style="text;strokeColor=none;fillColor=none;html=1;whiteSpace=wrap;verticalAlign=middle;overflow=hidden;fontSize=16;" vertex="1" parent="E7lHUV5NCX718kUmk5iU-2">
          <mxGeometry y="211" width="202" height="29" as="geometry" />
        </mxCell>
        <mxCell id="E7lHUV5NCX718kUmk5iU-10" value="+add_phone_number()" style="text;strokeColor=none;fillColor=none;html=1;whiteSpace=wrap;verticalAlign=middle;overflow=hidden;fontSize=16;" vertex="1" parent="E7lHUV5NCX718kUmk5iU-2">
          <mxGeometry y="240" width="202" height="36" as="geometry" />
        </mxCell>
        <mxCell id="E7lHUV5NCX718kUmk5iU-11" value="+add_email()" style="text;strokeColor=none;fillColor=none;html=1;whiteSpace=wrap;verticalAlign=middle;overflow=hidden;fontSize=16;" vertex="1" parent="E7lHUV5NCX718kUmk5iU-2">
          <mxGeometry y="276" width="202" height="33" as="geometry" />
        </mxCell>
        <mxCell id="E7lHUV5NCX718kUmk5iU-12" value="+change_phone_number()" style="text;strokeColor=none;fillColor=none;html=1;whiteSpace=wrap;verticalAlign=middle;overflow=hidden;fontSize=16;" vertex="1" parent="E7lHUV5NCX718kUmk5iU-2">
          <mxGeometry y="309" width="202" height="29" as="geometry" />
        </mxCell>
        <mxCell id="E7lHUV5NCX718kUmk5iU-13" value="+change_email()" style="text;strokeColor=none;fillColor=none;html=1;whiteSpace=wrap;verticalAlign=middle;overflow=hidden;fontSize=16;" vertex="1" parent="E7lHUV5NCX718kUmk5iU-2">
          <mxGeometry y="338" width="202" height="31" as="geometry" />
        </mxCell>
        <mxCell id="E7lHUV5NCX718kUmk5iU-14" value="+delete_phone_number()" style="text;strokeColor=none;fillColor=none;html=1;whiteSpace=wrap;verticalAlign=middle;overflow=hidden;fontSize=16;" vertex="1" parent="E7lHUV5NCX718kUmk5iU-2">
          <mxGeometry y="369" width="202" height="35" as="geometry" />
        </mxCell>
        <mxCell id="E7lHUV5NCX718kUmk5iU-15" value="+delete_email()" style="text;strokeColor=none;fillColor=none;html=1;whiteSpace=wrap;verticalAlign=middle;overflow=hidden;fontSize=16;" vertex="1" parent="E7lHUV5NCX718kUmk5iU-2">
          <mxGeometry y="404" width="202" height="36" as="geometry" />
        </mxCell>
        <mxCell id="E7lHUV5NCX718kUmk5iU-16" value="+add_birthday()" style="text;strokeColor=none;fillColor=none;html=1;whiteSpace=wrap;verticalAlign=middle;overflow=hidden;fontSize=16;" vertex="1" parent="E7lHUV5NCX718kUmk5iU-2">
          <mxGeometry y="440" width="202" height="30" as="geometry" />
        </mxCell>
        <mxCell id="E7lHUV5NCX718kUmk5iU-17" value="+days_to_birthday()" style="text;strokeColor=none;fillColor=none;html=1;whiteSpace=wrap;verticalAlign=middle;overflow=hidden;fontSize=16;" vertex="1" parent="E7lHUV5NCX718kUmk5iU-2">
          <mxGeometry y="470" width="202" height="29" as="geometry" />
        </mxCell>
        <mxCell id="E7lHUV5NCX718kUmk5iU-86" value="" style="endArrow=none;html=1;rounded=0;exitX=0;exitY=0;exitDx=0;exitDy=0;entryX=1;entryY=0;entryDx=0;entryDy=0;" edge="1" parent="E7lHUV5NCX718kUmk5iU-2" source="E7lHUV5NCX718kUmk5iU-10" target="E7lHUV5NCX718kUmk5iU-10">
          <mxGeometry width="50" height="50" relative="1" as="geometry">
            <mxPoint x="209" y="69" as="sourcePoint" />
            <mxPoint x="259" y="19" as="targetPoint" />
          </mxGeometry>
        </mxCell>
        <mxCell id="E7lHUV5NCX718kUmk5iU-18" value="AddressBook" style="swimlane;fontStyle=0;childLayout=stackLayout;horizontal=1;startSize=57;horizontalStack=0;resizeParent=1;resizeParentMax=0;resizeLast=0;collapsible=1;marginBottom=0;whiteSpace=wrap;html=1;fontSize=16;" vertex="1" parent="1">
          <mxGeometry x="-380" y="-1839" width="202" height="270" as="geometry">
            <mxRectangle x="-295" y="-533" width="87" height="57" as="alternateBounds" />
          </mxGeometry>
        </mxCell>
        <mxCell id="E7lHUV5NCX718kUmk5iU-19" value="+get_contact()" style="text;strokeColor=none;fillColor=none;html=1;whiteSpace=wrap;verticalAlign=middle;overflow=hidden;fontSize=16;" vertex="1" parent="E7lHUV5NCX718kUmk5iU-18">
          <mxGeometry y="57" width="202" height="33" as="geometry" />
        </mxCell>
        <mxCell id="E7lHUV5NCX718kUmk5iU-20" value="+add_record()" style="text;strokeColor=none;fillColor=none;html=1;whiteSpace=wrap;verticalAlign=middle;overflow=hidden;fontSize=16;" vertex="1" parent="E7lHUV5NCX718kUmk5iU-18">
          <mxGeometry y="90" width="202" height="30" as="geometry" />
        </mxCell>
        <mxCell id="E7lHUV5NCX718kUmk5iU-21" value="+delete_record()" style="text;strokeColor=none;fillColor=none;html=1;whiteSpace=wrap;verticalAlign=middle;overflow=hidden;fontSize=16;" vertex="1" parent="E7lHUV5NCX718kUmk5iU-18">
          <mxGeometry y="120" width="202" height="30" as="geometry" />
        </mxCell>
        <mxCell id="E7lHUV5NCX718kUmk5iU-22" value="+sort_addressbook()" style="text;strokeColor=none;fillColor=none;html=1;whiteSpace=wrap;verticalAlign=middle;overflow=hidden;fontSize=16;" vertex="1" parent="E7lHUV5NCX718kUmk5iU-18">
          <mxGeometry y="150" width="202" height="30" as="geometry" />
        </mxCell>
        <mxCell id="E7lHUV5NCX718kUmk5iU-23" value="+search()" style="text;strokeColor=none;fillColor=none;html=1;whiteSpace=wrap;verticalAlign=middle;overflow=hidden;fontSize=16;" vertex="1" parent="E7lHUV5NCX718kUmk5iU-18">
          <mxGeometry y="180" width="202" height="30" as="geometry" />
        </mxCell>
        <mxCell id="E7lHUV5NCX718kUmk5iU-24" value="+save_records_to_file()" style="text;strokeColor=none;fillColor=none;html=1;whiteSpace=wrap;verticalAlign=middle;overflow=hidden;fontSize=16;" vertex="1" parent="E7lHUV5NCX718kUmk5iU-18">
          <mxGeometry y="210" width="202" height="30" as="geometry" />
        </mxCell>
        <mxCell id="E7lHUV5NCX718kUmk5iU-25" value="+read_records_from_file()" style="text;strokeColor=none;fillColor=none;html=1;whiteSpace=wrap;verticalAlign=middle;overflow=hidden;fontSize=16;" vertex="1" parent="E7lHUV5NCX718kUmk5iU-18">
          <mxGeometry y="240" width="202" height="30" as="geometry" />
        </mxCell>
        <mxCell id="E7lHUV5NCX718kUmk5iU-26" value="Email" style="swimlane;fontStyle=0;childLayout=stackLayout;horizontal=1;startSize=57;horizontalStack=0;resizeParent=1;resizeParentMax=0;resizeLast=0;collapsible=1;marginBottom=0;whiteSpace=wrap;html=1;fontSize=16;" vertex="1" parent="1">
          <mxGeometry x="280" y="-1520" width="202" height="137" as="geometry">
            <mxRectangle x="-295" y="-533" width="87" height="57" as="alternateBounds" />
          </mxGeometry>
        </mxCell>
        <mxCell id="E7lHUV5NCX718kUmk5iU-27" value="&lt;div&gt;+emal: str | None&lt;/div&gt;" style="text;strokeColor=none;fillColor=none;html=1;whiteSpace=wrap;verticalAlign=middle;overflow=hidden;fontSize=16;" vertex="1" parent="E7lHUV5NCX718kUmk5iU-26">
          <mxGeometry y="57" width="202" height="80" as="geometry" />
        </mxCell>
        <mxCell id="E7lHUV5NCX718kUmk5iU-28" value="User" style="swimlane;fontStyle=0;childLayout=stackLayout;horizontal=1;startSize=57;horizontalStack=0;resizeParent=1;resizeParentMax=0;resizeLast=0;collapsible=1;marginBottom=0;whiteSpace=wrap;html=1;fontSize=16;" vertex="1" parent="1">
          <mxGeometry x="280" y="-1800" width="202" height="136" as="geometry">
            <mxRectangle x="-295" y="-533" width="87" height="57" as="alternateBounds" />
          </mxGeometry>
        </mxCell>
        <mxCell id="E7lHUV5NCX718kUmk5iU-29" value="&lt;div&gt;- birthday_date: date | None&lt;/div&gt;" style="text;strokeColor=none;fillColor=none;html=1;whiteSpace=wrap;verticalAlign=middle;overflow=hidden;fontSize=16;" vertex="1" parent="E7lHUV5NCX718kUmk5iU-28">
          <mxGeometry y="57" width="202" height="41" as="geometry" />
        </mxCell>
        <mxCell id="E7lHUV5NCX718kUmk5iU-30" value="&lt;div&gt;+ name: str | None&lt;/div&gt;" style="text;strokeColor=none;fillColor=none;html=1;whiteSpace=wrap;verticalAlign=middle;overflow=hidden;fontSize=16;" vertex="1" parent="E7lHUV5NCX718kUmk5iU-28">
          <mxGeometry y="98" width="202" height="38" as="geometry" />
        </mxCell>
        <mxCell id="E7lHUV5NCX718kUmk5iU-31" value="Phone" style="swimlane;fontStyle=0;childLayout=stackLayout;horizontal=1;startSize=57;horizontalStack=0;resizeParent=1;resizeParentMax=0;resizeLast=0;collapsible=1;marginBottom=0;whiteSpace=wrap;html=1;fontSize=16;" vertex="1" parent="1">
          <mxGeometry x="280" y="-1638.5" width="202" height="98" as="geometry">
            <mxRectangle x="-295" y="-533" width="87" height="57" as="alternateBounds" />
          </mxGeometry>
        </mxCell>
        <mxCell id="E7lHUV5NCX718kUmk5iU-32" value="+phone: str | None" style="text;strokeColor=none;fillColor=none;html=1;whiteSpace=wrap;verticalAlign=middle;overflow=hidden;fontSize=16;" vertex="1" parent="E7lHUV5NCX718kUmk5iU-31">
          <mxGeometry y="57" width="202" height="41" as="geometry" />
        </mxCell>
        <mxCell id="E7lHUV5NCX718kUmk5iU-42" value="Notes" style="swimlane;fontStyle=0;childLayout=stackLayout;horizontal=1;startSize=57;horizontalStack=0;resizeParent=1;resizeParentMax=0;resizeLast=0;collapsible=1;marginBottom=0;whiteSpace=wrap;html=1;fontSize=16;" vertex="1" parent="1">
          <mxGeometry x="-740" y="-1839" width="202" height="273" as="geometry">
            <mxRectangle x="-295" y="-533" width="87" height="57" as="alternateBounds" />
          </mxGeometry>
        </mxCell>
        <mxCell id="E7lHUV5NCX718kUmk5iU-43" value="+add_note()" style="text;strokeColor=none;fillColor=none;html=1;whiteSpace=wrap;verticalAlign=middle;overflow=hidden;fontSize=16;" vertex="1" parent="E7lHUV5NCX718kUmk5iU-42">
          <mxGeometry y="57" width="202" height="36" as="geometry" />
        </mxCell>
        <mxCell id="E7lHUV5NCX718kUmk5iU-44" value="+find()" style="text;strokeColor=none;fillColor=none;html=1;whiteSpace=wrap;verticalAlign=middle;overflow=hidden;fontSize=16;" vertex="1" parent="E7lHUV5NCX718kUmk5iU-42">
          <mxGeometry y="93" width="202" height="30" as="geometry" />
        </mxCell>
        <mxCell id="E7lHUV5NCX718kUmk5iU-45" value="+show_all_sorted_notes()" style="text;strokeColor=none;fillColor=none;html=1;whiteSpace=wrap;verticalAlign=middle;overflow=hidden;fontSize=16;" vertex="1" parent="E7lHUV5NCX718kUmk5iU-42">
          <mxGeometry y="123" width="202" height="30" as="geometry" />
        </mxCell>
        <mxCell id="E7lHUV5NCX718kUmk5iU-46" value="+del_notes()" style="text;strokeColor=none;fillColor=none;html=1;whiteSpace=wrap;verticalAlign=middle;overflow=hidden;fontSize=16;" vertex="1" parent="E7lHUV5NCX718kUmk5iU-42">
          <mxGeometry y="153" width="202" height="30" as="geometry" />
        </mxCell>
        <mxCell id="E7lHUV5NCX718kUmk5iU-47" value="+edit_notes()" style="text;strokeColor=none;fillColor=none;html=1;whiteSpace=wrap;verticalAlign=middle;overflow=hidden;fontSize=16;" vertex="1" parent="E7lHUV5NCX718kUmk5iU-42">
          <mxGeometry y="183" width="202" height="30" as="geometry" />
        </mxCell>
        <mxCell id="E7lHUV5NCX718kUmk5iU-48" value="+save()" style="text;strokeColor=none;fillColor=none;html=1;whiteSpace=wrap;verticalAlign=middle;overflow=hidden;fontSize=16;" vertex="1" parent="E7lHUV5NCX718kUmk5iU-42">
          <mxGeometry y="213" width="202" height="30" as="geometry" />
        </mxCell>
        <mxCell id="E7lHUV5NCX718kUmk5iU-49" value="+load()" style="text;strokeColor=none;fillColor=none;html=1;whiteSpace=wrap;verticalAlign=middle;overflow=hidden;fontSize=16;" vertex="1" parent="E7lHUV5NCX718kUmk5iU-42">
          <mxGeometry y="243" width="202" height="30" as="geometry" />
        </mxCell>
        <mxCell id="E7lHUV5NCX718kUmk5iU-51" value="SortingFiles" style="swimlane;fontStyle=0;childLayout=stackLayout;horizontal=1;startSize=57;horizontalStack=0;resizeParent=1;resizeParentMax=0;resizeLast=0;collapsible=1;marginBottom=0;whiteSpace=wrap;html=1;fontSize=16;" vertex="1" parent="1">
          <mxGeometry x="280" y="-2160" width="202" height="321" as="geometry">
            <mxRectangle x="-295" y="-533" width="87" height="57" as="alternateBounds" />
          </mxGeometry>
        </mxCell>
        <mxCell id="E7lHUV5NCX718kUmk5iU-52" value="+ path: Path" style="text;strokeColor=none;fillColor=none;html=1;whiteSpace=wrap;verticalAlign=middle;overflow=hidden;fontSize=16;" vertex="1" parent="E7lHUV5NCX718kUmk5iU-51">
          <mxGeometry y="57" width="202" height="33" as="geometry" />
        </mxCell>
        <mxCell id="E7lHUV5NCX718kUmk5iU-53" value="+ lst_files_addresses&lt;span style=&quot;background-color: initial;&quot;&gt;: list&lt;/span&gt;" style="text;strokeColor=none;fillColor=none;html=1;whiteSpace=wrap;verticalAlign=middle;overflow=hidden;fontSize=16;" vertex="1" parent="E7lHUV5NCX718kUmk5iU-51">
          <mxGeometry y="90" width="202" height="33" as="geometry" />
        </mxCell>
        <mxCell id="E7lHUV5NCX718kUmk5iU-54" value="+ lst_known: list" style="text;strokeColor=none;fillColor=none;html=1;whiteSpace=wrap;verticalAlign=middle;overflow=hidden;fontSize=16;" vertex="1" parent="E7lHUV5NCX718kUmk5iU-51">
          <mxGeometry y="123" width="202" height="33" as="geometry" />
        </mxCell>
        <mxCell id="E7lHUV5NCX718kUmk5iU-55" value="&lt;div&gt;+ dict_extensions: dict&lt;/div&gt;" style="text;strokeColor=none;fillColor=none;html=1;whiteSpace=wrap;verticalAlign=middle;overflow=hidden;fontSize=16;" vertex="1" parent="E7lHUV5NCX718kUmk5iU-51">
          <mxGeometry y="156" width="202" height="33" as="geometry" />
        </mxCell>
        <mxCell id="E7lHUV5NCX718kUmk5iU-56" value="&lt;div&gt;+ files_addresses()&lt;/div&gt;" style="text;strokeColor=none;fillColor=none;html=1;whiteSpace=wrap;verticalAlign=middle;overflow=hidden;fontSize=16;" vertex="1" parent="E7lHUV5NCX718kUmk5iU-51">
          <mxGeometry y="189" width="202" height="33" as="geometry" />
        </mxCell>
        <mxCell id="E7lHUV5NCX718kUmk5iU-57" value="&lt;div&gt;+ sort_extensions()&lt;/div&gt;" style="text;strokeColor=none;fillColor=none;html=1;whiteSpace=wrap;verticalAlign=middle;overflow=hidden;fontSize=16;" vertex="1" parent="E7lHUV5NCX718kUmk5iU-51">
          <mxGeometry y="222" width="202" height="33" as="geometry" />
        </mxCell>
        <mxCell id="E7lHUV5NCX718kUmk5iU-58" value="&lt;div&gt;+ removing_files()&lt;/div&gt;" style="text;strokeColor=none;fillColor=none;html=1;whiteSpace=wrap;verticalAlign=middle;overflow=hidden;fontSize=16;" vertex="1" parent="E7lHUV5NCX718kUmk5iU-51">
          <mxGeometry y="255" width="202" height="33" as="geometry" />
        </mxCell>
        <mxCell id="E7lHUV5NCX718kUmk5iU-59" value="&lt;div&gt;+ del_empty_folders()&lt;/div&gt;" style="text;strokeColor=none;fillColor=none;html=1;whiteSpace=wrap;verticalAlign=middle;overflow=hidden;fontSize=16;" vertex="1" parent="E7lHUV5NCX718kUmk5iU-51">
          <mxGeometry y="288" width="202" height="33" as="geometry" />
        </mxCell>
        <mxCell id="E7lHUV5NCX718kUmk5iU-85" value="" style="endArrow=none;html=1;rounded=0;entryX=1;entryY=0;entryDx=0;entryDy=0;exitX=0;exitY=0;exitDx=0;exitDy=0;" edge="1" parent="E7lHUV5NCX718kUmk5iU-51" source="E7lHUV5NCX718kUmk5iU-56" target="E7lHUV5NCX718kUmk5iU-56">
          <mxGeometry width="50" height="50" relative="1" as="geometry">
            <mxPoint x="-510" y="380" as="sourcePoint" />
            <mxPoint x="-460" y="330" as="targetPoint" />
          </mxGeometry>
        </mxCell>
        <mxCell id="E7lHUV5NCX718kUmk5iU-63" value="UserDict" style="swimlane;fontStyle=0;childLayout=stackLayout;horizontal=1;startSize=57;horizontalStack=0;resizeParent=1;resizeParentMax=0;resizeLast=0;collapsible=1;marginBottom=0;whiteSpace=wrap;html=1;fontSize=16;" vertex="1" parent="1">
          <mxGeometry x="-560" y="-2160" width="202" height="80" as="geometry">
            <mxRectangle x="-295" y="-533" width="87" height="57" as="alternateBounds" />
          </mxGeometry>
        </mxCell>
        <mxCell id="E7lHUV5NCX718kUmk5iU-64" value="..." style="text;strokeColor=none;fillColor=none;html=1;whiteSpace=wrap;verticalAlign=middle;overflow=hidden;fontSize=16;" vertex="1" parent="E7lHUV5NCX718kUmk5iU-63">
          <mxGeometry y="57" width="202" height="23" as="geometry" />
        </mxCell>
        <mxCell id="E7lHUV5NCX718kUmk5iU-73" value="" style="endArrow=block;html=1;rounded=0;entryX=0.5;entryY=1;entryDx=0;entryDy=0;endFill=0;" edge="1" parent="1">
          <mxGeometry width="50" height="50" relative="1" as="geometry">
            <mxPoint x="-459" y="-2040" as="sourcePoint" />
            <mxPoint x="-459" y="-2080" as="targetPoint" />
          </mxGeometry>
        </mxCell>
        <mxCell id="E7lHUV5NCX718kUmk5iU-74" value="" style="endArrow=none;html=1;rounded=0;" edge="1" parent="1">
          <mxGeometry width="50" height="50" relative="1" as="geometry">
            <mxPoint x="-640" y="-2040" as="sourcePoint" />
            <mxPoint x="-280" y="-2040" as="targetPoint" />
          </mxGeometry>
        </mxCell>
        <mxCell id="E7lHUV5NCX718kUmk5iU-75" value="" style="endArrow=none;html=1;rounded=0;endFill=0;" edge="1" parent="1">
          <mxGeometry width="50" height="50" relative="1" as="geometry">
            <mxPoint x="-640" y="-2040" as="sourcePoint" />
            <mxPoint x="-640" y="-1840" as="targetPoint" />
          </mxGeometry>
        </mxCell>
        <mxCell id="E7lHUV5NCX718kUmk5iU-76" value="" style="endArrow=none;html=1;rounded=0;endFill=0;" edge="1" parent="1">
          <mxGeometry width="50" height="50" relative="1" as="geometry">
            <mxPoint x="-280" y="-2039" as="sourcePoint" />
            <mxPoint x="-280" y="-1839" as="targetPoint" />
          </mxGeometry>
        </mxCell>
        <mxCell id="E7lHUV5NCX718kUmk5iU-78" value="" style="endArrow=none;html=1;rounded=0;entryX=0;entryY=0.25;entryDx=0;entryDy=0;exitX=1;exitY=0.18;exitDx=0;exitDy=0;exitPerimeter=0;startArrow=diamondThin;startFill=1;endSize=6;strokeWidth=1;sourcePerimeterSpacing=0;targetPerimeterSpacing=0;startSize=15;" edge="1" parent="1" source="E7lHUV5NCX718kUmk5iU-3" target="E7lHUV5NCX718kUmk5iU-28">
          <mxGeometry width="50" height="50" relative="1" as="geometry">
            <mxPoint x="130" y="-1766" as="sourcePoint" />
            <mxPoint x="-160" y="-1650" as="targetPoint" />
          </mxGeometry>
        </mxCell>
        <mxCell id="E7lHUV5NCX718kUmk5iU-79" value="" style="endArrow=diamondThin;html=1;rounded=0;entryX=1;entryY=0;entryDx=0;entryDy=0;startArrow=none;startFill=0;endFill=0;endSize=15;" edge="1" parent="1" target="E7lHUV5NCX718kUmk5iU-12">
          <mxGeometry width="50" height="50" relative="1" as="geometry">
            <mxPoint x="200" y="-1530" as="sourcePoint" />
            <mxPoint x="-160" y="-1650" as="targetPoint" />
          </mxGeometry>
        </mxCell>
        <mxCell id="E7lHUV5NCX718kUmk5iU-80" value="" style="endArrow=none;html=1;rounded=0;" edge="1" parent="1">
          <mxGeometry width="50" height="50" relative="1" as="geometry">
            <mxPoint x="200" y="-1500" as="sourcePoint" />
            <mxPoint x="200" y="-1620" as="targetPoint" />
          </mxGeometry>
        </mxCell>
        <mxCell id="E7lHUV5NCX718kUmk5iU-82" value="" style="endArrow=none;html=1;rounded=0;entryX=0;entryY=0.185;entryDx=0;entryDy=0;entryPerimeter=0;" edge="1" parent="1" target="E7lHUV5NCX718kUmk5iU-31">
          <mxGeometry width="50" height="50" relative="1" as="geometry">
            <mxPoint x="200" y="-1620" as="sourcePoint" />
            <mxPoint x="-160" y="-1650" as="targetPoint" />
          </mxGeometry>
        </mxCell>
        <mxCell id="E7lHUV5NCX718kUmk5iU-83" value="" style="endArrow=none;html=1;rounded=0;entryX=-0.005;entryY=0.168;entryDx=0;entryDy=0;entryPerimeter=0;" edge="1" parent="1">
          <mxGeometry width="50" height="50" relative="1" as="geometry">
            <mxPoint x="200" y="-1500" as="sourcePoint" />
            <mxPoint x="280" y="-1500" as="targetPoint" />
          </mxGeometry>
        </mxCell>
        <mxCell id="E7lHUV5NCX718kUmk5iU-84" value="" style="endArrow=none;html=1;rounded=0;exitX=1.005;exitY=0.107;exitDx=0;exitDy=0;exitPerimeter=0;endFill=0;startArrow=diamondThin;startFill=0;endSize=6;startSize=15;" edge="1" parent="1" source="E7lHUV5NCX718kUmk5iU-18">
          <mxGeometry width="50" height="50" relative="1" as="geometry">
            <mxPoint x="130" y="-1670" as="sourcePoint" />
            <mxPoint x="-80" y="-1810" as="targetPoint" />
          </mxGeometry>
        </mxCell>
      </root>
    </mxGraphModel>
  </diagram>
</mxfile>
